<svg xmlns="http://www.w3.org/2000/svg" width="56" height="56" viewBox="0 0 56 56" style="fill:#fc0d1b"><path data-name="シェイプ 1486" d="M40.4 37.843a9.538 9.538 0 0 0-3.29-1.085.112.112 0 0 1-.087-.165.239.239 0 0 0 .023-.176.234.234 0 0 0-.105-.141l-.2-.12a10.1 10.1 0 0 0 .006-7.312l.2-.117a.236.236 0 0 0 .082-.317.108.108 0 0 1 0-.1.111.111 0 0 1 .09-.061 9.555 9.555 0 0 0 3.29-1.083c1.409-.843 1.926-1.928 1.383-2.9a1.483 1.483 0 0 0-1.188-.786 3.241 3.241 0 0 0-1.931.574 9.923 9.923 0 0 0-2.552 2.408.115.115 0 0 1-.1.05.1.1 0 0 1-.085-.054.22.22 0 0 0-.306-.085l-.2.12a9.684 9.684 0 0 0-.759-.891 9.25 9.25 0 0 0-5.353-2.766v-.246a.228.228 0 0 0-.223-.232.1.1 0 0 1-.089-.05.117.117 0 0 1 0-.11 10.445 10.445 0 0 0 .738-3.493c0-1.685-.649-2.691-1.736-2.691s-1.736 1.006-1.736 2.69A10.439 10.439 0 0 0 27 22.2a.116.116 0 0 1-.006.111.1.1 0 0 1-.088.05.218.218 0 0 0-.158.068.235.235 0 0 0-.066.164v.239a9.242 9.242 0 0 0-5.353 2.764 9.854 9.854 0 0 0-.76.891l-.2-.121a.22.22 0 0 0-.306.085.1.1 0 0 1-.085.054.108.108 0 0 1-.1-.05 9.922 9.922 0 0 0-2.552-2.408 3.26 3.26 0 0 0-1.931-.576 1.483 1.483 0 0 0-1.187.787 1.587 1.587 0 0 0-.065 1.458 3.4 3.4 0 0 0 1.446 1.444 9.545 9.545 0 0 0 3.29 1.085.111.111 0 0 1 .09.061.108.108 0 0 1 0 .1.237.237 0 0 0 .082.317l.2.118a10.139 10.139 0 0 0 0 7.314l-.2.117a.238.238 0 0 0-.082.317.111.111 0 0 1 0 .1.113.113 0 0 1-.09.061 9.536 9.536 0 0 0-3.29 1.084 3.393 3.393 0 0 0-1.447 1.444 1.584 1.584 0 0 0 .064 1.458c.543.975 1.709 1.054 3.118.212a9.927 9.927 0 0 0 2.553-2.408.109.109 0 0 1 .1-.05.1.1 0 0 1 .085.054.22.22 0 0 0 .306.085l.2-.12a9.843 9.843 0 0 0 .759.891 9.244 9.244 0 0 0 5.353 2.766v.239a.235.235 0 0 0 .066.164.218.218 0 0 0 .158.068.1.1 0 0 1 .088.05.114.114 0 0 1 .006.11 10.476 10.476 0 0 0-.739 3.493c0 1.685.649 2.691 1.736 2.691a1.472 1.472 0 0 0 1.251-.671 3.558 3.558 0 0 0 .485-2.019 10.445 10.445 0 0 0-.738-3.493.122.122 0 0 1 .006-.111.1.1 0 0 1 .088-.049.228.228 0 0 0 .224-.232v-.236a9.371 9.371 0 0 0 6.109-3.656l.206.123a.22.22 0 0 0 .306-.085.1.1 0 0 1 .085-.054.107.107 0 0 1 .1.05 9.926 9.926 0 0 0 2.552 2.409 3.248 3.248 0 0 0 1.93.575 1.482 1.482 0 0 0 1.188-.787 1.584 1.584 0 0 0 .064-1.458 3.4 3.4 0 0 0-1.451-1.444zm-11.235.827l.162-2.6a3.684 3.684 0 0 0 .983-.592l2.256 1.156a6.031 6.031 0 0 1-3.401 2.036zm3.125-10.616c.1.1.19.206.28.313l-2.259 1.156a3.671 3.671 0 0 0-.977-.59l-.138-2.6a5.971 5.971 0 0 1 3.094 1.721zm-.649 3.868l2.111-1.428a6.5 6.5 0 0 1 .316 2.007 6.452 6.452 0 0 1-.319 2.006l-2.108-1.427a3.832 3.832 0 0 0 0-1.158zm-7.317 1.174l-2.085 1.41a6.522 6.522 0 0 1 0-4.014l2.084 1.411a3.976 3.976 0 0 0 .001 1.197zm-.621-5.043a5.96 5.96 0 0 1 3.123-1.725l-.161 2.591a3.623 3.623 0 0 0-1 .595l-2.241-1.149a7.41 7.41 0 0 1 .276-.312zm0 8.893c-.1-.1-.19-.206-.28-.312l2.242-1.148a3.649 3.649 0 0 0 1 .593l.137 2.587a5.972 5.972 0 0 1-3.102-1.72z" style="fill-rule:evenodd"/></svg>