<svg xmlns="http://www.w3.org/2000/svg" viewBox="0 0 207.4 207.4" style="enable-background:new 0 0 207.4 207.4;fill:#fc0d1b"><path d="M204.7 177.3c-4.3-4.3-9.9-5-15.6-5h-2.3l-16.2-16.2c24.1-30.8 24.1-74 0-104.8l16.2-16.2h2.3c5.7 0 11.3-.7 15.6-5 3.6-3.8 3.6-9.7 0-13.5-3-3.1-6.2-4.2-10.6-3.3.9-4.4-.3-7.6-3.3-10.6-3.8-3.6-9.7-3.6-13.5 0-4.3 4.3-5 9.9-5 15.6v2.3l-16.2 16.2c-30.8-24.1-74-24.1-104.8 0L35.1 20.6v-2.3c0-5.7-.7-11.3-5-15.6-3.8-3.6-9.7-3.6-13.5 0-3 3-4.2 6.2-3.3 10.6-4.4-.9-7.6.3-10.6 3.3-3.6 3.8-3.6 9.7 0 13.5 4.3 4.3 9.9 5 15.6 5h2.3l16.2 16.2c-24.1 30.8-24.1 74 0 104.8l-16.2 16.2h-2.3c-5.7 0-11.3.7-15.6 5-3.6 3.8-3.6 9.7 0 13.5 3 3 6.2 4.2 10.6 3.3-.9 4.4.3 7.6 3.3 10.6 3.8 3.6 9.7 3.6 13.5 0 4.3-4.3 5-9.9 5-15.6v-2.3l16.2-16.2c30.8 24.1 74 24.1 104.8 0l16.2 16.2v2.3c0 5.7.7 11.3 5 15.6 3.8 3.6 9.7 3.6 13.5 0 3-3 4.2-6.2 3.3-10.6 4.4.9 7.5-.3 10.6-3.3 3.6-3.8 3.6-9.8 0-13.5zm-63.3-89.8c.1.7.1 1.5.1 2.2 0 22.5-17.5 48.5-49.5 48.5-9.4 0-18.7-2.6-26.7-7.6 1.4.2 2.8.2 4.1.3 7.8 0 15.4-2.6 21.6-7.3-7.4-.1-13.9-4.8-16.2-11.8 2.6.5 5.3.4 7.9-.3-8-1.5-13.9-8.5-13.9-16.7v-.2c2.4 1.3 5.1 2.1 7.9 2.1-7.6-4.9-10-15-5.4-22.8C80.1 84.5 93.1 91 107 91.7c-1.4-5.9.5-12.2 5-16.3 7.1-6.5 18-6.1 24.6.8 3.9-.8 7.6-2.2 11-4.1-1.3 4-4 7.3-7.6 9.4 3.4-.4 6.8-1.3 10-2.7-2.3 3.4-5.2 6.3-8.6 8.7z" style="fill-rule:evenodd;clip-rule:evenodd"/></svg>