<svg xmlns="http://www.w3.org/2000/svg" viewBox="0 0 207.4 207.4" style="enable-background:new 0 0 207.4 207.4;fill:#fc0d1b"><path d="M204.7 177.3c-4.3-4.3-9.9-5-15.6-5h-2.3l-16.2-16.2c24.1-30.8 24.1-74 0-104.8l16.2-16.2h2.3c5.7 0 11.3-.7 15.6-5 3.6-3.8 3.6-9.7 0-13.5-3-3.1-6.2-4.2-10.6-3.3.9-4.4-.3-7.6-3.3-10.6-3.8-3.6-9.7-3.6-13.5 0-4.3 4.3-5 9.9-5 15.6v2.3l-16.2 16.2c-30.8-24.1-74-24.1-104.8 0L35.1 20.6v-2.3c0-5.7-.7-11.3-5-15.6-3.8-3.6-9.7-3.6-13.5 0-3 3-4.2 6.2-3.3 10.6-4.4-.9-7.6.3-10.6 3.3-3.6 3.8-3.6 9.7 0 13.5 4.3 4.3 9.9 5 15.6 5h2.3l16.2 16.2c-24.1 30.8-24.1 74 0 104.8l-16.2 16.2h-2.3c-5.7 0-11.3.7-15.6 5-3.6 3.8-3.6 9.7 0 13.5 3 3 6.2 4.2 10.6 3.3-.9 4.4.3 7.6 3.3 10.6 3.8 3.6 9.7 3.6 13.5 0 4.3-4.3 5-9.9 5-15.6v-2.3l16.2-16.2c30.8 24.1 74 24.1 104.8 0l16.2 16.2v2.3c0 5.7.7 11.3 5 15.6 3.8 3.6 9.7 3.6 13.5 0 3-3 4.2-6.2 3.3-10.6 4.4.9 7.5-.3 10.6-3.3 3.6-3.8 3.6-9.8 0-13.5zM125 76.9h-7.8c-6.1 0-7.3 2.8-7.3 7v9.2h14.6l-1.9 14.4h-12.7v37H94.6v-37H81.8V93.1h12.8V82.5c0-12.3 7.7-19.1 19-19.1 3.8 0 7.6.2 11.4.6v12.9z" style="fill-rule:evenodd;clip-rule:evenodd"/></svg>