<svg xmlns="http://www.w3.org/2000/svg" width="393" height="115" viewBox="0 0 393 115"><path d="M146.26 67.7V115h100.48V67.7H146.26zm99.12 45.9h-97.76V69h97.76v44.6zm-60.11-23.8c-.27 0-.43.1-1.38 1.1a1.342 1.342 0 0 1-1.2.6h-12.84a5.384 5.384 0 0 1-1.65-.2 1.749 1.749 0 0 0-.43-.2 11.975 11.975 0 0 0-2.18-.8.44.44 0 0 0-.48.5c0 .3.11 1.9.15 2.3.13 2.5.16 6.9.16 9.1 0 .5-.1 2.4-.17 3.9-.06 1.1-.1 1.9-.1 2.1 0 .9.28 1.2 1.03 1.2.4 0 2.09-.2 2.36-1.4.03-.3.04-2.8.04-3.9 0-2 0-2.1 1.04-2.1h13.15c.78 0 .92.2.92 1a8.381 8.381 0 0 1-.08 2c-.15.2-.62.3-1.94.3-.16 0-.66-.1-1.19-.1h-1.43c-.4 0-.48.2-.48.3a.779.779 0 0 0 .55.5.131.131 0 0 1 .14.1c2.43.9 2.83 1.5 3.04 2l.04.1a1.129 1.129 0 0 0 1.01 1 4.583 4.583 0 0 0 2.75-1.6 4.431 4.431 0 0 0 .87-3c0-.5-.05-2.2-.09-4-.06-2.1-.11-4.2-.11-4.9 0-1.8.02-1.9.44-2.2h.07a1.677 1.677 0 0 0 .82-.9 4.712 4.712 0 0 0-1.16-1.6 4.524 4.524 0 0 0-1.67-1.2zm-15.57 7.4h13.03c.9 0 1 .3 1 1.4 0 1.6-.04 2-.92 2h-13.07c-1.12 0-1.12-.3-1.12-2 0-1 .05-1.4 1.08-1.4zm12.95-1.4h-12.87c-1.03 0-1.16-.2-1.16-1.3 0-1.4.08-1.6 1.16-1.6h13.03c.88 0 .92.5.92 1.3 0 1.2 0 1.6-1.08 1.6zm-23.18-7.9a.49.49 0 0 0 .45.3h.39a.976.976 0 0 1 .48-.1c.42 0 1.4-.1 4.92-.1h25.74c1.42 0 2.21 0 2.21-.7 0-.6-2.85-2.8-3.34-2.8-.41 0-.52.1-1.25 1.2l-.22.3c-.46.6-.46.6-1.54.6h-8.65c-1.12 0-1.12-.4-1.12-1.2 0-2 .03-2.1 1.04-2.1h8.33a3.733 3.733 0 0 0 1.79-.2.579.579 0 0 0 .46-.5c0-.7-2.77-2.5-3.3-2.5a1.372 1.372 0 0 0-1.17.9c-.43.8-.68.9-1.88.9h-4.19c-1.02 0-1.04 0-1.04-2.5 0-.7.48-.8 1.16-.8h10.33c1.44 0 2.24 0 2.24-.7 0-.6-2.8-2.5-3.34-2.5-.34 0-.66.2-1.12 1-.47.7-.72.8-1.93.8h-6.18c-.5 0-1.09-.1-1.09-.6a.862.862 0 0 1 .11-.4 1.184 1.184 0 0 1 .36-.4 2.022 2.022 0 0 0 .63-.9c0-.8-3.59-1.5-4.16-1.5-.23 0-.48 0-.48.4a9.874 9.874 0 0 0 .17 1l.02.1v1.5c0 .7-.49.8-1.04.8h-4.93c-1.74 0-3.34 0-5.36-.1-.14 0-.54-.1-.9-.1a6.837 6.837 0 0 1-.82-.1.277.277 0 0 0-.33.3.713.713 0 0 0 .2.4l.77.9h.03a.75.75 0 0 0 .42.3c.16 0 .69-.1.88-.1h.4a42.088 42.088 0 0 1 4.51-.1h5.21c.92 0 1.08.2 1.08 1.5 0 1.6-.03 1.8-.97 1.8h-2.89c-1.74 0-3.34-.1-5.36-.2h-.79c-.39 0-.78-.1-.93-.1a.262.262 0 0 0-.29.3.771.771 0 0 0 .19.3l.75.9.05.1a.683.683 0 0 0 .43.3 1.675 1.675 0 0 1 .43-.1h.41a45.325 45.325 0 0 1 4.95-.1h3.09c.93 0 .97.4.97 1.4 0 1.6-.03 1.9-.89 1.9h-7.67c-1.65 0-3.18 0-4.79-.1h-.57a3.405 3.405 0 0 1-.87-.1h-.89a.246.246 0 0 0-.29.2.461.461 0 0 0 .2.4zm39.22 1.9a.6.6 0 0 0 .47.3 1 1 0 0 0 .43-.1h.41a45.325 45.325 0 0 1 4.95-.1h2.27a.436.436 0 0 1 .54.4c0 1-4.13 6.1-8.2 9.4-.13.1-.28.2-.44.3-.76.7-.76.7-.76.8a.292.292 0 0 0 .33.3 24.666 24.666 0 0 0 7.79-5.1 3.916 3.916 0 0 1 1.09-1c.31 0 .42.1.42 1.7 0 .8-.04 3-.08 5.4s-.08 4.9-.08 5.8.1 1.7 1.23 1.7a1.981 1.981 0 0 0 2.17-2 1.065 1.065 0 0 1 1.19-.8h7.17c.61 0 .73.4.73 1.1a1 1 0 0 0 1.03 1.2c2.47 0 2.47-1.4 2.47-2.1 0-.5-.03-2.1-.07-3.8s-.08-3.5-.08-4.1a6.823 6.823 0 0 1 .12-1.9.422.422 0 0 1 .12-.1 2.248 2.248 0 0 0 .62-1c0-.8-2.8-2.7-3.14-2.7-.27 0-.33.1-.58.5l-.11.1a1.933 1.933 0 0 1-1.7.7h-5.99c-2.48 0-3.78-1.1-3.78-1.6a10.364 10.364 0 0 1 1.38-2.3l.04-.1a1.965 1.965 0 0 1 1.77-.8h6.62a2.069 2.069 0 0 1 1.85 1.1 22.218 22.218 0 0 0 9.53 8.3.851.851 0 0 0 .49-.5c.05-.1.11-.1.15-.2a5.654 5.654 0 0 1 2.64-1.6.338.338 0 0 1 .29-.1.591.591 0 0 0 .52-.4c0-.2 0-.2-1.68-.6a2.946 2.946 0 0 1-.52-.1c-4.22-1.2-8.7-5.1-8.8-5.6 0-.2.12-.3.46-.3h7.86c1.35 0 2.25 0 2.25-.7s-3.57-2.8-3.81-2.8c-.42 0-.55.2-1.56 1.4l-.14.1c-.53.6-.67.6-2.37.6h-3.13a1.849 1.849 0 0 1-1.63-.5 17.558 17.558 0 0 1-1.96-3.4c0-.4.51-.4.61-.4h6.93c.74 0 1.46 0 1.46-.6 0-.8-3.02-2.9-3.38-2.9a2.117 2.117 0 0 0-.91.9 9.005 9.005 0 0 1-1.05 1.2h-7.9c-.58 0-.65-.3-.65-.5.01-.1.18-.5.33-1a14.663 14.663 0 0 0 .52-1.6 1.539 1.539 0 0 1 1.48-.8h13.31c1.42 0 2.28 0 2.28-.7s-3.59-2.8-3.85-2.8c-.41 0-.54.2-1.56 1.4l-.13.1c-.5.7-.64.7-2.38.7h-7.47a.782.782 0 0 1-.89-.7 1.567 1.567 0 0 1 .68-1.1 1.588 1.588 0 0 0 .81-1.1c0-.4-.17-.4-.8-.6l-.19-.1a23.962 23.962 0 0 0-3.76-1.1.517.517 0 0 0-.52.4 1.066 1.066 0 0 0 .14.4h.04a4.317 4.317 0 0 1 .17 1.4c0 1.7-.21 2.5-1.47 2.5h-4.11c-1.6 0-3.01-.1-4.64-.2h-.72a3.236 3.236 0 0 1-.85-.1h-.87c-.27 0-.33.1-.33.2a.59.59 0 0 0 .2.4l.78.9h.01a.747.747 0 0 0 .47.3h.38a4.282 4.282 0 0 0 .46-.1c.32 0 1.28-.1 4.91-.1h4.07a.753.753 0 0 1 .89.7 9.512 9.512 0 0 1-.72 2.5 1.579 1.579 0 0 1-1.5.7h-1.8c-1.96 0-3.56 0-5.36-.1a2.9 2.9 0 0 1-.79-.1h-.93a.306.306 0 0 0-.32.2.613.613 0 0 0 .11.3.124.124 0 0 1 .12.1l.74.9a.506.506 0 0 0 .49.3h.43a.75.75 0 0 1 .41-.1c.43 0 1.64-.1 4.91-.1h2.07a.481.481 0 0 1 .54.5 18.7 18.7 0 0 1-1.3 3.2 1.758 1.758 0 0 1-1.59.6h-2.38c-1.96 0-3.56 0-5.36-.1a7.333 7.333 0 0 0-.79-.1h-.93a.246.246 0 0 0-.29.2.619.619 0 0 0 .19.4zm20.86 10.3h-7.59c-.6 0-.97-.1-.97-2s.36-2.1.97-2.1h7.59c.56 0 .96.2.96 2.1 0 1.8-.38 2-.96 2zm-7.52 1.4h7.48c.71 0 1.04.2 1.04 2s-.33 2-1.04 2h-7.44c-.56 0-1.04 0-1.04-2.2 0-1.5.19-1.8 1-1.8zm.09-13.4a24.938 24.938 0 0 1 1.6-3.3 1.726 1.726 0 0 1 1.33-.6h1.84a1.138 1.138 0 0 1 1.13.6 1.459 1.459 0 0 0 .12.4c.65 1.7.99 2.7 1 2.8a.413.413 0 0 1-.49.5h-6.03a.4.4 0 0 1-.5-.4zM25.78.1A26.139 26.139 0 0 0 6.87 43.9c4.66 4.8 11.1 7.4 18.63 7.4 7.74 0 14.27-2.6 18.9-7.6A25.519 25.519 0 0 0 51.01 26 26.577 26.577 0 0 0 44.2 7.7C39.56 2.7 33.19.1 25.78.1zm17.44 27A29.222 29.222 0 0 1 40.36 40c-2.91 5.6-7.77 8.5-14.45 8.5-17.62 0-18.12-21.5-18.12-24 0-10.4 5.48-21.6 17.51-21.6 13.23 0 17.92 13 17.92 24.2zm66.35-25.9h-.18a58.414 58.414 0 0 1-6.86.3c-4.84 0-9.69-.3-9.76-.3a1 1 0 0 0-1.06 1.1 1.944 1.944 0 0 0 .73 1.4l.07.1h.09c7.3.8 7.3 3 7.3 13.4 0 1.1-.01 2.6-.02 4.2-.02 2.1-.04 4.4-.04 6.7 0 3.8.07 7.2.2 9.7v.2c-1.46-1.7-3.01-3.5-4.66-5.5-2.72-3.2-5.54-6.6-8.26-9.5C71.15 5.7 70.46 3.7 70.05 2.5l-.09-.2c-.21-.6-.37-1.1-.95-1.1h-.17a28.655 28.655 0 0 1-4.27.2c-3.36 0-6.63-.2-6.69-.2a1.093 1.093 0 0 0-1.27 1.1 1.843 1.843 0 0 0 .73 1.4l.07.1h.09c4.12.5 6.21 2.1 6.21 4.8 0 3.6.02 7.7.04 11.6.02 3.8.03 7.4.03 10.5 0 15.4-.33 16.4-6.01 17.1h-.09l-.07.1a1.738 1.738 0 0 0-.66 1.4.933.933 0 0 0 .86 1.1H58a45.06 45.06 0 0 1 6.98-.5c4.84 0 9.48.5 9.53.5h.03a.968.968 0 0 0 .99-1.1 1.738 1.738 0 0 0-.66-1.4l-.06-.1h-.09c-5.39-.9-6.51-1.1-7.11-10-.27-4.2-.48-13.1-.48-20.7 0-1.3.02-2.6.04-3.8.01-1.1.03-2.1.03-3 4.62 5.8 11.56 13.7 18.37 21.4 6.79 7.7 12.12 14.4 14.25 17.7.93 1.5 1.56 2 2.51 2 .68 0 1.81-.3 1.81-2.1v-.6c-.61-6.2-.89-17.7-.89-25.8 0-3.7.1-6.3.14-7.3.02-.6.04-1.1.07-1.7.32-8.2.38-9.5 6.21-10.1h.09l.07-.1a1.849 1.849 0 0 0 .66-1.4.941.941 0 0 0-.92-1.1zm45.84 36.5a1.051 1.051 0 0 0-.87.5c-4.78 7.1-8.8 9.5-15.93 9.5a11.327 11.327 0 0 1-2.68-.2c-6.01-.9-6.1-2.8-6.33-7.9l-.04-.8c-.07-1.9-.13-6.6-.13-9.8v-2.8c0-.7 0-.9 3.17-.9 6.73 0 10.02.9 10.48 6.2a1.275 1.275 0 0 0 1.33 1 1.147 1.147 0 0 0 1.33-1c0-.1-.34-4.2-.34-8.4a41.794 41.794 0 0 1 .34-6l.01-.1a1.139 1.139 0 0 0-1.34-1.1 1.249 1.249 0 0 0-1.32.9c-.88 5-3.71 5.8-10.15 5.8-3.51 0-3.51-.3-3.51-.7v-5c0-11.1.07-12.5 1.93-12.8a19.31 19.31 0 0 1 3.7-.3c7.6 0 10.52 1.1 12.81 7.7a.812.812 0 0 0 .91.5 1.194 1.194 0 0 0 1.4-1.1c0-1.1-.12-2.5-.24-3.8-.11-1.4-.23-2.7-.23-3.8a3.157 3.157 0 0 1 .03-.5q.03-.3.03-.6v-.1c0-1-.84-1-1.81-1-.11 0-11.1.3-20.14.3-5.32 0-8.96-.1-10.83-.3h-.09a1.056 1.056 0 0 0-1 1.2 1.637 1.637 0 0 0 .69 1.4l.08.1h.09c4.52 0 5.38 1.3 5.64 2.8.33 1.6.54 3.4.54 19.2 0 17.4-.46 19.2-.47 19.2-.49 2-.89 2.4-5.4 2.8h-.08l-.07.1a1.71 1.71 0 0 0-.81 1.4 1.009 1.009 0 0 0 1.06 1.1h.09c2.35-.2 6.43-.3 12.13-.3 9.78 0 20.98.3 21.1.3.92 0 1.82-.1 2.14-1 .27-.8.88-2.2 1.59-3.8a66.078 66.078 0 0 0 2.64-6.5l.02-.2a1.624 1.624 0 0 0-1.47-1.2zm45.31-36.5h-1.18c-.87 0-1.68.1-2.46.1-2.95.2-5.29.3-7.97.3-1.69 0-3.58-.1-5.78-.2h-.09a1.1 1.1 0 0 0-1.06 1.2 1.551 1.551 0 0 0 .75 1.3l.06.1h.69c5.07.6 5.07.6 5.33 9.5.07 1.7.07 5.2.07 9 0 5.2 0 11-.07 13.7v.1c-.21 10.4-.21 10.8-5.74 11.4h-.08l-.06.1a1.882 1.882 0 0 0-.81 1.5 1.051 1.051 0 0 0 1.06 1.1h.18a52.669 52.669 0 0 1 7.67-.5c5.45 0 10.84.5 10.92.5a1.078 1.078 0 0 0 1.06-1.1 1.967 1.967 0 0 0-.72-1.5l-.08-.1h-.1c-3.31-.2-4.97-.4-5.85-2.7-.93-2.5-1.03-7.3-1.03-17 0-4.7.07-9.8.13-14.6 0-2.5.1-3.9.19-5.1.03-.6.07-1.1.09-1.6 0-1.1 0-2.9 3.99-2.9 10.12 0 10.41 11 10.41 12.2 0 6.1-4.08 10.1-10.41 10.1h-.34a1.176 1.176 0 0 0-1.13 1.2 1.466 1.466 0 0 0 1.68 1.4c8.33 0 17.24-3.7 17.24-14.1 0-9.3-8.32-13.4-16.56-13.4zm36.9 10c.13-6.4.14-6.9 5.67-7.4h.04l.05-.1a1.315 1.315 0 0 0 .87-1.3 1.2 1.2 0 0 0-1.06-1.3h-.11a55.424 55.424 0 0 1-8.09.4c-5.11 0-9.83-.3-9.9-.3a1.1 1.1 0 0 0-1.06 1.2 1.537 1.537 0 0 0 .69 1.3l.06.1h.08c2.94.2 4.41.4 5.13 1.5.75 1.2.84 3.5 1 8.2l.01.3c.06 2.2.14 6.5.14 11.3 0 5.3-.1 10.5-.14 12.5-.02.7-.03 1.4-.04 2-.11 6.4-.13 7.5-5.83 8.2h-.08l-.06.1a1.639 1.639 0 0 0-.75 1.4.941.941 0 0 0 .92 1.1h.26a45.6 45.6 0 0 1 7.19-.5c5.25 0 10.5.5 10.58.5a1.057 1.057 0 0 0 1.06-1.1 1.876 1.876 0 0 0-.73-1.4l-.07-.1h-.09c-5.67-.6-5.69-2.2-5.78-8.9-.01-.4-.01-.9-.02-1.4-.07-3.6-.14-8.4-.14-13.1 0-3.8.07-7.6.14-10.7.03-1 .04-1.8.06-2.5zm53.81 26.5a1.079 1.079 0 0 0-.87.5c-4.77 7.1-8.79 9.5-15.92 9.5a11.414 11.414 0 0 1-2.69-.2c-6.01-.9-6.09-2.8-6.33-7.9l-.03-.8c-.07-1.9-.14-6.6-.14-9.8v-2.8c0-.7 0-.9 3.18-.9 6.73 0 10.02.9 10.48 6.2a1.268 1.268 0 0 0 1.33 1 1.153 1.153 0 0 0 1.33-1c0-.1-.34-4.2-.34-8.4a41.794 41.794 0 0 1 .34-6V17a1.13 1.13 0 0 0-1.33-1.1 1.261 1.261 0 0 0-1.33.9c-.88 5-3.71 5.8-10.14 5.8-3.52 0-3.52-.3-3.52-.7v-5c0-11.1.07-12.5 1.93-12.8a19.5 19.5 0 0 1 3.71-.3c7.6 0 10.52 1.1 12.81 7.7a.812.812 0 0 0 .91.5 1.194 1.194 0 0 0 1.4-1.1c0-1.1-.12-2.5-.24-3.8-.12-1.4-.24-2.7-.24-3.8a2.946 2.946 0 0 1 .04-.5c.01-.2.03-.4.03-.6v-.1c0-1-.84-1-1.82-1-.11 0-11.09.3-20.13.3-5.32 0-8.97-.1-10.83-.3h-.1a1.055 1.055 0 0 0-.99 1.2 1.654 1.654 0 0 0 .68 1.4l.08.1h.1c4.52 0 5.38 1.3 5.63 2.8.34 1.6.54 3.4.54 19.2 0 17.4-.46 19.2-.46 19.2-.49 2-.9 2.4-5.4 2.8h-.08l-.07.1a1.71 1.71 0 0 0-.81 1.4 1.009 1.009 0 0 0 1.06 1.1h.09c2.35-.2 6.43-.3 12.13-.3 9.78 0 20.98.3 21.1.3.92 0 1.82-.1 2.13-1 .28-.8.89-2.2 1.6-3.8a68.65 68.65 0 0 0 2.64-6.5l.01-.2a1.614 1.614 0 0 0-1.47-1.2zm51.69-1a1.156 1.156 0 0 0-1.03.5c-2.88 6.5-8.85 11.1-14.54 11.1a20.127 20.127 0 0 1-14.53-5.9c-4.09-4.1-6.26-10.1-6.26-17.2 0-15.3 9.72-22.3 18.74-22.3 8.02 0 13.74 3.9 16.1 10.8h.02a1.062 1.062 0 0 0 1.09.6 1.316 1.316 0 0 0 1.47-1.1 54.221 54.221 0 0 0-.68-6.1c-.23-1.6-.45-3.1-.48-3.9-.08-1.8-.48-1.9-2.36-1.9h-.34a42.146 42.146 0 0 1-6.2-.6 62.378 62.378 0 0 0-8.34-.7 27.418 27.418 0 0 0-19.11 7.5 24.317 24.317 0 0 0-7.63 17.7c0 8.2 2.92 15 8.44 19.6a29.908 29.908 0 0 0 19.39 6.6c5.07 0 11.49-1.7 14.9-3.8a1.941 1.941 0 0 0 1.16-1.7h.01c.12-.6.24-1.2.37-2a22.867 22.867 0 0 1 1.38-5.4.874.874 0 0 0 .17-.5 1.585 1.585 0 0 0-1.74-1.3zm48.41 1a1.079 1.079 0 0 0-.87.5c-4.78 7.1-8.79 9.5-15.93 9.5a11.37 11.37 0 0 1-2.68-.2c-6.01-.9-6.09-2.8-6.33-7.9l-.03-.8c-.07-1.9-.14-6.6-.14-9.8v-2.8c0-.7 0-.9 3.17-.9 6.74 0 10.02.9 10.49 6.2a1.268 1.268 0 0 0 1.33 1 1.153 1.153 0 0 0 1.33-1c0-.1-.34-4.2-.34-8.4a40.4 40.4 0 0 1 .34-6V17a1.13 1.13 0 0 0-1.33-1.1 1.261 1.261 0 0 0-1.33.9c-.88 5-3.71 5.8-10.14 5.8-3.52 0-3.52-.3-3.52-.7v-5c0-11.1.07-12.5 1.93-12.8a19.456 19.456 0 0 1 3.7-.3c7.61 0 10.53 1.1 12.82 7.7a.8.8 0 0 0 .91.5 1.2 1.2 0 0 0 1.4-1.1c0-1.1-.12-2.5-.24-3.8-.12-1.4-.24-2.7-.24-3.8 0-.2.02-.4.03-.5.02-.2.04-.4.04-.6v-.1c0-1-.83-1-1.82-1-.11 0-11.09.3-20.13.3-5.33 0-8.97-.1-10.83-.3h-.1a1.055 1.055 0 0 0-.99 1.2 1.654 1.654 0 0 0 .68 1.4l.08.1h.09c4.53 0 5.39 1.3 5.64 2.8.34 1.6.54 3.4.54 19.2 0 17.4-.46 19.2-.47 19.2-.48 2-.89 2.4-5.39 2.8h-.09l-.06.1a1.721 1.721 0 0 0-.82 1.4 1.014 1.014 0 0 0 1.06 1.1h.1c2.34-.2 6.43-.3 12.13-.3 9.78 0 20.98.3 21.09.3.93 0 1.82-.1 2.14-1 .28-.8.89-2.2 1.6-3.8a68.65 68.65 0 0 0 2.64-6.5l.01-.2a1.624 1.624 0 0 0-1.47-1.2z" style="fill-rule:evenodd"/></svg>