<svg version="1.1" id="レイヤー_1" xmlns="http://www.w3.org/2000/svg" x="0" y="0" viewBox="0 0 190 71" style="enable-background:new 0 0 190 71" xml:space="preserve" width="190" height="71"><style>.st0{fill:#fff}</style><path d="M183.7 52.1c0 .4-.1 1-.2 1.4-10.7-5.1-11.9-16.1-12-18.2h4.6v2.3c0 .2.3.9.8.9h1c.5 0 .8-.7.8-.9v-2.3h2.8c.2.8 1 2.8 2.8 2.7 1.4 0 2.6-1.3 3-3.3.5-2.1 0-4.6-2.2-5.7-.9-.5-1.8-.5-2.6-.2-1.6.6-2.6 2.4-2.9 3h-.8v-2.2c0-.1-.2-1-.9-1h-1c-.5.1-.7.7-.7 1v2.2h-4.7c.3-2 2.2-11.7 12.3-17v2.7l4.9-5.5-7.3-1.8.7.8s.5.6.8 1.1c-13.5 3.4-17.1 15.3-17.1 21.8v.7c.7 16.6 14.4 20.6 17.1 21.2l-.8 2 6.3-1.6-4.5-4.9-.2.8zM79.6 5H9c-1 0-1.8.7-1.8 1.7 0 .9.8 1.7 1.8 1.7h70.6c1 0 1.8-.8 1.8-1.7 0-1-.8-1.7-1.8-1.7zM188 4.9h-55.1c-1 0-1.8.8-1.8 1.7 0 .9.8 1.7 1.8 1.7H188c1 0 1.8-.8 1.8-1.7 0-.9-.8-1.7-1.8-1.7zm-.8 54.1H9c-1.9 0-3.9.6-3.9 1.7s2 1.7 3.9 1.7h178.2c1.8 0 2.6-.5 2.6-1.7s-.7-1.7-2.6-1.7z"/><path class="st0" d="M27.5 34.1L5.6 56s-2.3-1.6-4.1 0c-1.7 1.6-.9 3.8.1 4.5 1 .7 2.3.6 2.3.6s-.5 2.1 1.1 3c1.7 1 3.3 0 4.2-1.3 1-1.4-.7-3.7-.7-3.7l22-22-3-3z"/><path d="M27.3 33.8L5.6 55.5c-1-.6-2.8-1.1-4.3.2-.7.7-1.1 1.5-1.1 2.5v.3c.1 1 .6 1.9 1.3 2.4.8.5 1.6.6 2.1.6v.3c0 .8.2 2 1.4 2.7 2 1.1 3.7 0 4.7-1.4.3-.4.4-.8.4-1.2 0-1-.6-2.1-.9-2.6l22-22-3.5-3.7-.4.2zM5.9 56.2l21.6-21.6c.4.4 2.1 2.2 2.5 2.6-.5.5-22 21.9-22 21.9l.2.3c.3.4.9 1.5.9 2.4 0 .3-.1.6-.2.8-.8 1.1-2.1 2-3.7 1.1-1.3-.8-1-2.5-1-2.6l.1-.5h-.5s-1.2.1-2.1-.5c-.4-.3-.9-1-.9-1.8 0-.6.1-1.4.9-2.1 1.6-1.4 3.5-.1 3.6 0l.3.2.3-.2z"/><path class="st0" d="M31.9 35.9L53.8 14s2.3 1.6 4.1 0c1.7-1.6.9-3.8-.1-4.5-1-.7-2.3-.6-2.3-.6s.5-2.1-1.1-3c-1.7-1-3.3 0-4.2 1.3-1 1.4.7 3.7.7 3.7l-22 22 3 3z"/><path d="M49.8 6.9c-.3.4-.4.8-.4 1.2 0 1 .6 2.1.9 2.6l-22 22 3.5 3.7 22-22c1 .6 2.8 1.1 4.3-.2.7-.7 1.1-1.5 1.1-2.5v-.3c-.1-1-.6-1.9-1.3-2.4-.8-.5-1.6-.6-2.1-.6v-.3c0-.8-.2-2-1.4-2.7-1.9-1-3.6.1-4.6 1.5zm1.3 4.1l.2-.2-.2-.3c-.3-.4-.9-1.5-.9-2.4 0-.3.1-.6.2-.8.8-1.1 2.1-2 3.7-1.1 1.3.8 1 2.5 1 2.6l-.1.5h.5s1.2-.1 2.1.5c.4.3.9 1 .9 1.8 0 .6-.1 1.4-.9 2.1-1.6 1.4-3.5.1-3.6 0l-.3-.2-.2.2-21.6 21.6c-.4-.4-2.1-2.2-2.5-2.6L51.1 11z"/><path class="st0" d="M31.7 34.1L53.6 56s2.3-1.6 4.1 0c1.7 1.6.9 3.8-.1 4.5-1 .7-2.3.6-2.3.6s.5 2.1-1.1 3c-1.7 1-3.3 0-4.2-1.2-1-1.4.7-3.7.7-3.7l-22-21.9 3-3.2z"/><path d="M31.4 33.9l-3.3 3.4s21.6 21.5 22 22c-.3.5-.9 1.5-.9 2.6 0 .4.1.9.4 1.2.9 1.3 2.7 2.5 4.7 1.4 1.2-.7 1.4-1.9 1.4-2.7v-.3c.5 0 1.4-.1 2.1-.6.7-.5 1.2-1.4 1.3-2.4v-.3c0-.9-.4-1.8-1.1-2.5-1.5-1.3-3.3-.8-4.3-.2l-22-22-.3.4zm.3.8l21.9 21.9.3-.2c.1-.1 2.1-1.4 3.6 0 .8.7.9 1.5.9 2.1-.1.9-.5 1.5-.9 1.8-.9.6-2.1.5-2.1.5h-.5l.1.5c0 .1.4 1.8-1 2.6-1.5.9-2.9 0-3.7-1.1-.2-.2-.2-.5-.2-.8 0-.9.6-2 .9-2.4l.2-.3s-21.5-21.4-22-21.9c.4-.5 2.1-2.3 2.5-2.7z"/><path class="st0" d="M27.5 36.5L5.6 14.6s-2.3 1.6-4.1 0c-1.7-1.6-.9-3.8.1-4.5C2.7 9.4 4 9.5 4 9.5s-.5-2.1 1.1-3c1.7-1 3.3 0 4.2 1.2 1 1.4-.7 3.7-.7 3.7l22 21.9-3.1 3.2z"/><path d="M4.9 6.2C3.8 6.8 3.5 8 3.5 8.8v.3c-.5 0-1.4.1-2.1.6-.7.5-1.2 1.4-1.3 2.4v.3c0 .9.4 1.8 1.1 2.5 1.5 1.3 3.3.8 4.3.2l22 22 3.5-3.7S9.4 11.9 9 11.4c.3-.5.9-1.5.9-2.6 0-.4-.1-.9-.4-1.2C8.7 6.2 6.9 5 4.9 6.2zm-.5 3.2c0-.1-.4-1.8 1-2.6 1.5-.9 2.9 0 3.7 1.1.2.2.2.5.2.8 0 .9-.6 2-.9 2.4l-.2.3s21.5 21.4 22 21.9c-.4.4-2.1 2.2-2.5 2.6-.7-.5-22-21.8-22-21.8l-.3.2c-.1.1-2.1 1.4-3.6 0-.8-.7-.9-1.5-.9-2.1.1-.9.5-1.6 1-1.8.9-.6 2-.5 2.1-.5h.5l-.1-.5z"/><path d="M47 18.7c-4.6-4.7-11-7.4-17.5-7.4C16 11.3 5.2 22.1 5.2 35.5c0 13.1 11.1 24.2 24.2 24.2 12.8 0 23.9-11.1 24.3-24.2.1-6.3-2.3-12.3-6.7-16.8z"/><path class="st0" d="M20.6 56.1s2.8 5.8 8.6 5.9c5.1.1 7.5-4.6 7.5-4.6l-.7-6.5-12.4.2-3 5z"/><path d="M36.1 50.4l-12.7.2-3.3 5.4.1.2c.1.2 3 6 9.1 6.2 5.3.1 7.9-4.6 8-4.8l.1-.1-.7-7.1h-.6zm-.4 1c.1.7.6 5.7.6 5.9-.4.7-2.7 4.3-7 4.2-4.9-.1-7.5-4.4-8.1-5.4.2-.4 2.5-4.1 2.8-4.5.4-.1 10.9-.2 11.7-.2z"/><path d="M21.9 55.3c-.1.2-.1.4.1.5.1.1 2.3 1.7 7.7 1.7 5.3 0 6.5-1.2 6.7-1.3.1-.2.1-.4 0-.5-.1-.1-.4-.1-.5 0 0 0-1.1 1.1-6.1 1.1-5.1 0-7.3-1.5-7.3-1.5-.2-.2-.4-.2-.6 0z"/><path d="M27.5 53.8l-.7 3.2c0 .1.1.3.2.3s.3-.1.3-.2l.6-3.2c0-.1-.1-.3-.2-.3-.1-.1-.2 0-.2.2zm3.5-.2c-.1 0-.2.2-.2.3l.5 3.1c0 .1.2.2.3.2.1 0 .2-.1.2-.3l-.5-3.1c0-.1-.2-.2-.3-.2z"/><path class="st0" d="M22.6 52.2c-2.2.9-11.9 9.8-11.9 9.8l-4.4 3.5h1.5L7.6 68l1-.7.4 1.3.2-1 1.2 1.1.2-.8 1.3 1.3-.1-1.1 1.2.4-.3-3.2s6-6.9 14.8-12c.8-1.5-1.6-1.7-1.6-1.7s-.6-.5-3.3.6z"/><path d="M22.4 51.8c-2.2.9-11.6 9.5-12 9.9l-4.3 3.5-.8.7h2.2c-.1.6-.3 2.9-.3 2.9s1-.7 1.2-.9c.1.4.6 2.2.6 2.2s.4-1.5.4-1.7c.4.3 1.2 1.2 1.2 1.2s.1-.8.2-.8c.4.4 1.5 1.6 1.5 1.6s-.1-1.3-.1-1.6l1.2.4s-.3-3.3-.4-3.6c.8-.9 6.5-7.1 14.6-11.8l.1-.1.1-.1c.2-.4.2-.6.2-.9 0-.2-.1-.4-.1-.6-.4-.7-1.6-.9-1.9-.9-.4-.1-1.3-.3-3.6.6zm3.2.1l.2.1c.4 0 1.2.2 1.4.6v.2c0 .1 0 .2-.1.3-8.7 5.1-14.7 12-14.7 12l-.1.1s.2 2.1.3 2.8l-1.2-.4v.6l-1.1-1.1s-.2.8-.2.9c-.2-.3-1.1-1-1.1-1s0 .1-.1.2l-.2-.6s-.6.4-.7.5c.1-.7.2-2.1.2-2.1h-.9c1.1-.9 3.5-2.8 3.5-2.8 3.4-3.1 10.1-9.1 11.8-9.8 2.4-.8 3-.5 3-.5z"/><path d="M21.6 52.9c-.1.1 0 .3.1.3.7.5.9 2.3.9 2.9 0 .1.1.3.3.3.1 0 .3-.1.3-.3 0-.3 0-2.7-1.1-3.4-.2.1-.4.1-.5.2zm-1.7 1.5c-.1.1-.1.2 0 .4.3.3.4 2.1.3 3.3 0 .1.1.3.2.3s.3-.1.3-.2c0-.5.1-3-.5-3.6 0-.3-.2-.3-.3-.2zm-1.8 1c-.1 0-.2.2-.2.3.3 1.7.6 3.7.4 4-.1.1-.1.3 0 .3.1.1.2.1.3 0 .4-.4 0-3-.3-4.4 0-.1-.1-.2-.2-.2zm-2.4 2.3c-.1 0-.2.1-.2.3.2 1.8.4 3.9.2 4.2-.1.1 0 .3.1.3.1.1.2.1.3 0 .3-.4.1-3-.1-4.5-.1-.3-.2-.3-.3-.3zm-3 2.5c-.1.1 0 .3.1.3.4.2 1 2.8.8 3.4 0 .1 0 .3.2.3.1 0 .3 0 .3-.2.2-.6-.4-3.7-1.1-4-.1.1-.2.1-.3.2zm-2.5 2c-.1.1-.1.2 0 .4 0 0 1.5 1.8 2.1 3.6 0 .1.2.2.3.2.1 0 .2-.2.2-.3-.7-1.9-2.2-3.7-2.2-3.8-.1-.1-.3-.2-.4-.1zm-1.7 1.5c-.1.1-.2.2-.1.3 0 0 1 1.7.6 3.6 0 .1.1.3.2.3s.3-.1.3-.2c.4-2.1-.6-3.9-.7-4-.1-.1-.2-.1-.3 0z"/><path class="st0" d="M31.5 53.2c.1-.4 1.9-1 1.9-1s1.1-2.8 1.9-1.8C37.7 54 48.9 62.2 56.7 62c.1 0 4.5-.1 4.5-.1-1.1 4-5.6 4.3-7.9 3.6-.9-.1-14.9-4.6-21.8-12.3z"/><path d="M34.8 49.9c-.8.1-1.5 1.5-1.7 2.1-1.8.6-1.9 1-2 1.2v.2l.1.1c7.2 7.9 21.4 12.3 22 12.5 1.5.5 3.9.5 5.8-.5 1.3-.7 2.2-1.8 2.6-3.3l.1-.5-5 .1c-7.6.2-18.7-7.9-21.1-11.4-.3-.5-.7-.5-.8-.5zm-1.3 2.7l.2-.1.1-.2c.3-.9.9-1.7 1.1-1.8 0 0 .1 0 .1.1 2.3 3.5 13.6 12 21.7 11.8 0 0 2.7 0 3.9-.1-.4 1-1.1 1.8-2 2.4-1.7.9-3.8.9-5.2.5-.1 0-14.3-4.5-21.4-12.1.3 0 .9-.3 1.5-.5z"/><path d="M37.5 53.3c-1 1-4 1.3-4 1.3-.1 0-.2.1-.2.3 0 .1.1.2.3.2.1 0 3.2-.3 4.3-1.5.1-.1.1-.3 0-.4-.2 0-.3 0-.4.1zm1.7 1.5c-.2.5-2.4 1.3-3.8 1.6-.1 0-.2.2-.2.3 0 .1.2.2.3.2.6-.2 3.7-1 4.1-1.9.1-.1 0-.3-.1-.3-.1-.1-.3-.1-.3.1zm2.3 1.6c-.3.5-2.4 1.3-3.7 1.7-.1 0-.2.2-.2.3 0 .1.2.2.3.2.4-.1 3.4-1 4-1.9.1-.1 0-.3-.1-.3-.1-.1-.2-.1-.3 0zm2.7 1.6c-.4.5-2.6 1.2-3.9 1.5-.1 0-.2.2-.2.3 0 .1.2.2.3.2.4-.1 3.6-.8 4.2-1.7.1-.1 0-.3-.1-.3-.1-.1-.2-.1-.3 0zm2 1.5c-.4 1-2.6 1.4-3.4 1.5-.1 0-.2.1-.2.3 0 .1.1.2.3.2.1 0 3.2-.3 3.8-1.8 0-.1 0-.3-.2-.3-.1-.1-.2 0-.3.1zm2.9.9c-.1 0-.2.1-.2.3 0 .4-2.1 1.6-3 1.7-.1 0-.2.1-.2.3 0 .1.1.2.3.2.7-.1 3.5-1.3 3.4-2.2 0-.2-.1-.3-.3-.3zm2.8 1.2c-.5 1.2-2.5 2-2.6 2-.1.1-.2.2-.1.3.1.1.2.2.3.1.1 0 2.2-.9 2.8-2.3.1-.1 0-.3-.1-.3s-.2.1-.3.2zm3.1.6c-.3 1.5-2.7 2.8-2.8 2.8-.1.1-.2.2-.1.3.1.1.2.2.3.1.1-.1 2.6-1.4 3-3.1 0-.1-.1-.3-.2-.3l-.2.2zm2.5-.1c-.1 0-.2.1-.2.3 0 1.3-1.1 3.1-1.1 3.1-.1.1 0 .3.1.3.1.1.3 0 .3-.1.1-.1 1.3-2 1.2-3.4 0-.1-.1-.2-.3-.2z"/><path class="st0" d="M104.5 59.4h3.7c2.8.1 9.9 7.4 13.7 6.9 3.2-.4 4-4.3 4-4.3h-3.5c-4.4.1-10.5-5.2-11.9-5.6-3.7-1.3-6 3-6 3z"/><path d="M104.2 59.2l-.3.6h4.2c1.1 0 3.1 1.4 5.2 2.9 3 2.1 6.2 4.3 8.5 4 3.5-.4 4.3-4.4 4.4-4.6l.1-.5h-4c-3 .1-6.9-2.5-9.5-4.2-1.1-.7-1.9-1.2-2.3-1.4-3.8-1.4-6.3 3.1-6.3 3.2zm6.2-2.5c.4.1 1.2.7 2.1 1.3 2.6 1.8 6.6 4.4 9.9 4.4h3c-.3 1-1.3 3.3-3.6 3.6-2 .3-5.2-1.9-8-3.9-2.3-1.6-4.3-3-5.6-3h-3c.7-1.2 2.6-3.3 5.2-2.4z"/><path class="st0" d="M136.5 59.4h3.7c2.8.1 11.8 11.1 22.9 9.5 14.2-2 20.9-18 21.2-24.9.1-3.1-2.4-.8-2.4-.8s-4.5 21.8-21 22.4c-7.9.3-17-8.7-18.5-9.2-3.7-1.3-5.9 3-5.9 3z"/><path d="M181.6 42.8l-.1.2c0 .2-4.6 21.5-20.6 22.1-5.9.2-12.5-4.8-16-7.5-1.3-1-2-1.5-2.4-1.6-3.9-1.3-6.4 3.2-6.4 3.2l-.3.6h4.2c.7 0 2.3 1.1 4 2.4 4.4 3.2 11.1 8.2 19 7 14.6-2.1 21.3-18.7 21.6-25.3 0-1-.2-1.7-.7-1.9-.8-.4-2 .6-2.3.8zm2-.1c.2.1.3.6.3 1.2-.3 6.4-6.7 22.5-20.9 24.6-7.6 1.1-14.1-3.7-18.4-6.9-2-1.5-3.5-2.5-4.4-2.6h-3c.7-1.1 2.5-3.2 5.1-2.3.3.1 1.1.8 2.1 1.5 3.6 2.8 10.3 7.9 16.5 7.7 15.9-.6 20.9-20.8 21.3-22.6.4-.4 1.1-.8 1.4-.6z"/><path class="st0" d="M72.1 59.4h3.7c2.8.1 11.2 7.4 15 6.9 3.2-.4 4-4.3 4-4.3h-3.5c-4.4.1-11.8-5.2-13.2-5.6-3.7-1.3-6 3-6 3z"/><path d="M71.8 59.2l-.3.6h4.2c1.1 0 3.3 1.4 5.7 2.9 3.3 2 7 4.3 9.3 4 3.5-.4 4.3-4.4 4.4-4.6l.1-.5h-4c-3.1.1-7.9-2.7-10.7-4.4-1.1-.7-1.9-1.1-2.4-1.3-3.9-1.3-6.3 3.2-6.3 3.3zm6.2-2.5c.4.1 1.2.6 2.2 1.2 2.9 1.7 7.8 4.5 11.1 4.5h3c-.3 1-1.3 3.3-3.6 3.6-2 .3-5.6-2-8.8-3.9-2.6-1.6-4.8-2.9-6.1-3h-3c.7-1.2 2.5-3.3 5.2-2.4z"/><path d="M78.3 56.6c-2.3.4-3.5 2.3-3.5 2.4-.1.1 0 .3.1.3.1.1.3 0 .3-.1 0 0 1.1-1.8 3.2-2.1.1 0 .2-.2.2-.3 0-.1-.1-.2-.3-.2zm1.2 2c-.7.3-1.6.7-2.1.7-.1 0-.3.1-.3.3 0 .1.1.3.3.3.7 0 1.5-.4 2.3-.8.5-.2 1.1-.5 1.2-.5.1 0 .3 0 .3-.2 0-.1 0-.3-.1-.3-.3-.1-.7.1-1.6.5zm3.9 1c-.5 1.1-2.8 1.7-2.8 1.7-.1 0-.2.2-.2.3 0 .1.2.2.3.2.1 0 2.5-.7 3.1-2 .1-.1 0-.3-.1-.3-.1-.1-.2 0-.3.1zm2.6.7c-.1 0-.2.2-.2.3.1.6-1.4 1.6-2.5 2.1-.1.1-.2.2-.1.3.1.1.2.2.3.1.5-.2 3.1-1.5 2.8-2.7 0 0-.2-.1-.3-.1zm2.3 1.6c0 .7-1.4 1.9-2.3 2.5-.1.1-.1.2-.1.4.1.1.2.1.3.1.3-.2 2.5-1.8 2.5-2.9 0-.1-.1-.3-.3-.3 0-.1-.1 0-.1.2zm3.7.2c-.1 0-.2.1-.2.3.1.8-1.5 3.1-1.9 3.3-.1.1-.2.2-.1.3.1.1.2.2.3.1.6-.3 2.2-2.8 2.2-3.8 0-.1-.2-.2-.3-.2zm16.6-6.1c-.1 0-.2.2-.2.3.2.7-.8 2.2-1.2 2.7-.1.1-.1.3 0 .4.1.1.3.1.4 0 .2-.2 1.6-2 1.3-3.1 0-.2-.2-.3-.3-.3zm3 1.3l-2.1 2.1c-.1.1-.1.3 0 .4.1.1.3.1.4 0l2.1-2.1c.1-.1.1-.3 0-.4-.2-.1-.3-.1-.4 0zm2.3 1.4c-.2.4-1.8 1.3-2.7 1.7-.1.1-.2.2-.1.3.1.1.2.2.3.1.3-.1 2.5-1.2 2.9-1.9.1-.1 0-.3-.1-.3 0-.1-.2 0-.3.1zm2.1 1.5c-.3.5-1.9 1.4-2.5 1.7-.1.1-.2.2-.1.3.1.1.2.2.3.1.2-.1 2.2-1.1 2.7-1.9.1-.1 0-.3-.1-.3 0-.1-.2 0-.3.1zm2.4 1.1c-.6 1.1-2.7 1.9-2.7 1.9-.1 0-.2.2-.2.3 0 .1.2.2.3.2.1 0 2.3-.8 3-2.1.1-.1 0-.3-.1-.3-.1-.2-.2-.2-.3 0zm2.2.6c-.2 1.4-1.8 3.1-1.9 3.1-.1.1-.1.3 0 .4.1.1.3.1.4 0 .1-.1 1.8-1.8 2-3.4 0-.1-.1-.3-.2-.3-.2-.1-.3 0-.3.2zm2.2.4c-.4 1.6-1 3.4-1.4 3.6-.1.1-.2.2-.1.3.1.1.2.2.3.1.8-.3 1.4-3.1 1.6-4 0-.1-.1-.3-.2-.3 0 0-.1.1-.2.3zm18.9-6.1c-.6.9-1.7 2.4-2.3 2.5-.1 0-.2.2-.2.3 0 .1.2.2.3.2.9-.2 2.3-2.3 2.6-2.7.1-.1 0-.3-.1-.3-.1-.2-.3-.1-.3 0zm3 2c-.7.7-1.9 1.6-2.4 1.5-.1 0-.3.1-.3.2s.1.3.2.3c.9.2 2.5-1.3 2.8-1.6.1-.1.1-.3 0-.4-.1-.1-.2-.1-.3 0zm2.5 1.9s-1.4 1.1-2.7 1.2c-.1 0-.3.1-.2.3 0 .1.1.2.3.2 1.4 0 2.9-1.2 3-1.3.1-.1.1-.2 0-.4-.2-.1-.3-.1-.4 0zm2.5 1.4c-.5.5-1.8 1.7-2.6 1.6-.1 0-.3.1-.3.2s.1.3.2.3c1.2.1 2.8-1.6 3-1.8.1-.1.1-.3 0-.4-.1 0-.2 0-.3.1zm2.8 1.9c-.6.4-2.4 1.5-3.3 1.3-.1 0-.3.1-.3.2s.1.3.2.3c1.3.2 3.6-1.3 3.7-1.4.1-.1.1-.2.1-.3-.1-.2-.3-.2-.4-.1zm3.2 1.4c-.7.5-2.6 1.8-3.5 1.8-.1 0-.2.1-.2.3 0 .1.1.2.3.2 1.2-.1 3.7-1.9 3.8-1.9.1-.1.1-.2.1-.4-.2 0-.4-.1-.5 0zm4.2.8c-.6.9-1.9 2.4-2.5 2.5-.1 0-.2.2-.2.3 0 .1.2.2.3.2 1-.2 2.6-2.5 2.8-2.7.1-.1.1-.3-.1-.3-.1-.1-.2-.1-.3 0zm3-.2c-.3.8-1.4 2.8-2.1 3.2-.1.1-.2.2-.1.3.1.1.2.2.3.1.9-.5 2.2-3.1 2.3-3.4.1-.1 0-.3-.1-.3-.1-.1-.2 0-.3.1zm4.1-1.1c-.4 1.4-1.3 3.5-1.8 3.6-.1 0-.2.2-.2.3 0 .1.2.2.3.2 1-.3 2-3.4 2.2-4 0-.1 0-.3-.2-.3s-.3.1-.3.2zm3.7-2.2c-.1 0-.2.1-.2.3 0 1.2-.1 3.3-.5 3.7-.1.1-.1.3 0 .4.1.1.3.1.4 0 .7-.7.7-3.5.6-4.1 0-.2-.1-.3-.3-.3zm3.4-3.2c-.1 0-.2.2-.2.3.2 1.3.4 3.5-.1 4-.1.1-.1.3 0 .4.1.1.3.1.4 0 .8-.8.3-4.1.2-4.4-.1-.3-.2-.3-.3-.3zm2.4-2.8c-.1 0-.2.2-.1.3.4 1.1 1 3 .7 3.5-.1.1 0 .3.1.3.1.1.3 0 .3-.1.4-.9-.5-3.4-.7-3.9-.1 0-.2-.1-.3-.1zm1.6-3.1c-.1 0-.2.2-.2.3l1.3 4c0 .1.2.2.3.2.1 0 .2-.2.2-.3l-1.3-4c0-.2-.1-.3-.3-.2zm1.7-3.3c-.1.1-.1.2-.1.3l2 3c.1.1.2.1.3.1.1-.1.1-.2.1-.3l-2-3c0-.1-.2-.1-.3-.1zm1.2-3.3c-.1.1-.1.3 0 .4l2.2 2.1c.1.1.3.1.4 0 .1-.1.1-.3 0-.4l-2.2-2.1c-.2-.1-.3-.1-.4 0z"/><path class="st0" d="M23.2 50.8s-.8 1.7-1 2.2c9.2 2.6 14.8-.7 14.8-.7l-1.4-2.1-6.8.1-5.6.5z"/><path d="M35.5 49.6l-6.8.1-5.6.6h-.3l-1.4 2.9.5.2c9.3 2.6 14.9-.7 15.1-.8l.4-.3-1.8-2.8-.1.1zm-.2 1c.2.3.6 1 .9 1.5-1.4.7-6.2 2.4-13.4.6.2-.5.5-1.1.7-1.4.5 0 5.3-.5 5.3-.5-.1-.1 5.2-.2 6.5-.2z"/><path class="st0" d="M29.3 51.5c8.9 0 16.1-7.2 16.1-16.1 0-8.9-7.2-16.1-16.1-16.1-8.9 0-16.1 7.2-16.1 16.1 0 8.9 7.2 16.1 16.1 16.1z"/><path d="M12.7 35.4c0 9.1 7.4 16.6 16.6 16.6 9.1 0 16.6-7.4 16.6-16.6s-7.4-16.6-16.6-16.6c-9.2 0-16.6 7.5-16.6 16.6zm.9 0c0-8.6 7-15.6 15.6-15.6s15.6 7 15.6 15.6S37.8 51 29.2 51s-15.6-7-15.6-15.6z"/><path d="M22.2 45.4c2.8 0 5-2.2 5-5s-2.2-5-5-5-5 2.2-5 5 2.2 5 5 5zm14.1 0c2.8 0 5-2.2 5-5s-2.2-5-5-5-5 2.2-5 5c.1 2.8 2.3 5 5 5zm-7 3.2c1.1 0 1.9-.9 1.9-1.9 0-1.1-.9-1.9-1.9-1.9-1.1 0-1.9.9-1.9 1.9-.1 1 .8 1.9 1.9 1.9zm-4.2 2.3l-.6 2.5c0 .1.1.3.2.3s.3-.1.3-.2l.6-2.5c0-.1-.1-.3-.2-.3-.2 0-.3.1-.3.2z"/><path class="st0" d="M28.1 51.6l-.1 2.3"/><path d="M27.9 51.6l-.2 2.4c0 .1.1.3.2.3s.3-.1.3-.2l.2-2.4c0-.1-.1-.3-.2-.3-.2-.1-.3 0-.3.2z"/><path class="st0" d="M30.5 51.3l.1 2.6"/><path d="M30.5 51.1c-.1 0-.2.1-.2.3l.2 2.6c0 .1.1.2.3.2.1 0 .2-.1.2-.3l-.2-2.6c-.1-.1-.2-.3-.3-.2z"/><path class="st0" d="M32.6 50.9l1 2.5"/><path d="M32.5 50.6c-.1.1-.2.2-.1.3l1 2.5c.1.1.2.2.3.1.1 0 .2-.2.1-.3l-1-2.5s-.2-.1-.3-.1z"/><path class="st0" d="M14.5 33.4c2.1-.3 7.6-2.3 13.3-2.5 8.3-.3 17.1 1.4 17.5 2.8v.2c-.8-8.1-7.7-14.5-16-14.5-8.7 0-15.8 7-16.1 15.6.1-.7.5-1.5 1.3-1.6z"/><path d="M12.8 34.9l.7.1c.2-.8.5-1.2 1-1.3.7-.1 1.6-.4 2.9-.7 2.7-.7 6.5-1.7 10.3-1.8 9.1-.3 16.9 1.6 17.1 2.5v.2l.7-.1c-.8-8.5-7.9-14.9-16.4-14.9-8.8 0-16.1 7.1-16.3 16zm16.5-15.2c7.7 0 14.2 5.5 15.5 13-2.6-1.5-10.7-2.4-17-2.2-4 .2-7.7 1.1-10.5 1.9-1.2.3-2.2.6-2.8.7-.2 0-.5.1-.8.3 1-7.8 7.5-13.7 15.6-13.7z"/><path d="M43.7 28.4s-7.9-1.4-15-1.3c-7 .1-13.4 1.1-14 1.3-.8 2.1-1.1 3.5-1.1 3.5l16.8-1s14.5 1.8 14.7 1.2c-.2-1.2-1.4-3.7-1.4-3.7z"/><path d="M45.4 32.2c-.1-1.3-1.3-3.8-1.3-3.9l-.1-.2h-.2c-.1 0-8-1.4-15.1-1.3-7 .1-13.5 1.1-14.1 1.3h-.2l-.1.2c-.8 2.1-1.1 3.5-1.1 3.6l-.1.5 17.2-1c14.7 1.9 14.9 1.3 15 1l.1-.2zm-15-1.6s-15.4.9-16.3.9c.1-.6.4-1.6.9-2.8 1.2-.2 7.2-1.1 13.8-1.2 6.4-.1 13.5 1 14.7 1.3.2.5.9 2.2 1.1 3.2-1.6.1-9.4-.8-14.2-1.4zm55-13.3c2.7 0 4.5 3.1 4.5 3.2l.7 1.2.1-9.4H71.5l-.1.7c.1 0 1.6.8 2 2.8.5 2.7 1.4 34.6-.1 38-.6 1.5-2.3 2.4-2.4 2.4l.2.7h19.4v-9.5l-.7 1.1s-1.5 2.3-3.8 2.3c-2.1 0-3.7-.5-4.8-1.6-1.2-1.2-1.6-2.6-1.6-3.2V35.1c1-.1 4.1-.2 6.4 3.7l.7 1.2v-2.6c0-2.2.1-6.9 0-8.4l-.1-1.3-.6 1.2c-2.3 3.9-5.5 3.9-6.5 3.8v-9c0-2 .6-3.6 1.6-4.7 1.6-1.5 3.7-1.7 4.3-1.7zm56.3 0c2.7 0 4.5 3.1 4.5 3.2l.7 1.2.1-9.4h-19.4l1.1.7s1.2.7 1.3 2.8c.2 3.5.5 33.6-.3 37.2-.4 1.6-2.6 3.2-2.6 3.3l-.9.7h20.5v-9.5l-.7 1.1s-1.5 2.3-3.8 2.3c-2.1 0-3.7-.5-4.8-1.6-1.2-1.2-1.5-2.6-1.5-3.2V35.2c1-.1 4.1-.2 6.4 3.7l.7 1.1v-2.6c0-2.2.1-6.9 0-8.4l-.1-1.3-.6 1.1c-2.3 3.9-5.5 3.9-6.5 3.8v-9c0-2 .6-3.6 1.6-4.7 1.6-1.5 3.7-1.6 4.3-1.6zM113 19.8c-.2-5.5-4.9-7.6-7.3-7.6-1.8.1-9.5 0-9.6 0h-1l.7.7s1.2 1.1 1.1 4v34.5c0 3.3-1.8 4.7-1.9 4.8l-.9.7h1.1l10.4-.1-.9-.7s-1.6-1.3-1.6-4.9v-6.6c1.3.1 5.1.1 7.6-2.1 1.5-1.3 2.3-3.1 2.3-5.4.1-1.9.1-14.6 0-17.3zm-6 15.9c0 .9-.3 1.7-.9 2.3-.7.7-1.8 1.1-3 1.1V17.7c.7 0 2.2.2 3.2 1.1.5.5.8 1.3.8 2.1v.1l-.1 14.7c0-.1 0-.1 0 0zm50 2.3l.7.6s.9.9.9 2.1v5c0 .5-.2 1-.6 1.4-.4.4-1 .6-1.8.6-1.8 0-1.9-2.1-1.9-6.3l-.1-17.8s0-3.6 2.1-3.7c.5 0 .9.1 1.3.4.5.5.8 1.2.8 2.2v4.2c0 .6-.3 1.2-.9 1.8l-.6.6h8.6l-.2-10.1c-.1-2.1-3.2-6.9-8.8-6.9-5.8 0-9.2 4.2-9.2 11.2v22.3c0 .9.1 5.8 3.1 8.8 1.5 1.6 3.5 2.4 6 2.4 2.2 0 4.4-1 6.2-2.7 1.9-1.9 3.1-4.5 3.1-7.2v-9l-8.7.1z"/><path class="st0" d="M184.7 44.2c.3.8.5 1.7.5 1.7l-.8 1.2 1-.4.3.9.5-.9.8.5.3-.8 1.3.6.2-1.5h.4s-.6-.6-.8-1.3c-.3-.7-.2-3.5-5.4-7.3-1.2.1-2.6 3.6-2.6 3.6s3.5 1 4.3 3.7z"/><path d="M183 36.5c-1.4.1-2.7 3.3-2.9 3.9l-.1.4.4.1s3.2.9 4 3.4c0 0 .4 1.3.4 1.6-.1.2-1.3 2-1.3 2s1.5-.6 1.8-.7c.1.3.5 1.4.5 1.4s.5-1.1.7-1.3c.2.1.9.5.9.5s.2-.6.3-.8c.4.2 1.3.7 1.3.7s.2-1.3.2-1.7l.8-.1-.5-.6s-.5-.6-.7-1.2l-.1-.3c-.3-1.1-.8-3.8-5.4-7.2l-.1-.1h-.2zm0 .8c4.2 3.2 4.7 5.6 5 6.6l.1.4c.1.3.3.7.5.9 0 .1-.1.8-.2 1.2l-1.2-.6s-.2.6-.3.8l-.8-.4-.2.5-.2-.5-.3.1c0-.1.2-.3.2-.3l-.5-1.9c-.8-2.4-3.2-3.4-4.1-3.8.5-1.2 1.4-2.8 2-3z"/><path class="st0" d="M181.2 34.8c.8-1.7 1.2-3.2 2.1-3.2 1.6 0 2.1 3.9.9 4.7-1.2.8-1.5 3.7-1.5 4.6 0 1.2 1.1 1.2 1.1 1.2l1.1 2.3s-6.5 2-5-5.7c.3-1.7.7-2.5 1.3-3.9z"/><path d="M181.2 33.7l-.4 1c-.6 1.4-1 2.3-1.3 3.9-.5 2.6-.2 4.4 1 5.5 1.7 1.5 4.4.7 4.5.6l.4-.1-1.4-2.8h-.2c-.1 0-.7-.1-.7-.9 0-1.1.4-3.6 1.3-4.3.9-.6 1-2.4.6-3.7-.3-1.1-1-1.7-1.7-1.7-1 .1-1.5 1.1-2.1 2.5zm.7.3c.4-1.1.8-2 1.3-2 .6 0 .9.8 1 1.1.1.4.2.8.2 1.3 0 .7-.2 1.4-.5 1.6-1.4.9-1.7 4.1-1.7 4.9 0 1.1.7 1.5 1.2 1.6.1.2.6 1.2.8 1.7-.8.1-2.3.3-3.3-.6-.6-.6-1-1.5-1-2.7 0-.6.1-1.3.2-2 .3-1.6.6-2.4 1.2-3.8l.6-1.1zm-.4 1z"/><path d="M182.7 41.6c-.1.1-1.5 1.2-1.2 3.1 0 .1.2.2.3.2.1 0 .2-.2.2-.3-.3-1.5 1-2.6 1-2.6.1-.1.1-.2 0-.4 0-.1-.2-.1-.3 0zm-.2-2.1c-.1 0-2.9.6-3 2.2 0 .1.1.3.2.3s.3-.1.3-.2c.1-1 1.9-1.6 2.6-1.8.1 0 .2-.2.2-.3-.1-.2-.2-.3-.3-.2zm.9-3.2c-.1 0-2 .1-3.8 1.6-.1.1-.1.2 0 .4.1.1.2.1.4 0 1.6-1.4 3.5-1.5 3.5-1.5.1 0 .2-.1.2-.3 0-.1-.1-.2-.3-.2zm.9-2.6c-1.1.1-2.8 1.1-3.7 1.6l-.2.1c-.1.1-.2.2-.1.3.1.1.2.2.3.1l.2-.1c.8-.5 2.5-1.5 3.5-1.6.1 0 .2-.1.2-.3.1 0 0-.1-.2-.1zm-2.6-.7c-.1.1-.2.2-.1.3.1.1.2.2.3.1.6-.3 1.7-.7 2.1-.6.1 0 .3-.1.3-.2s-.1-.3-.2-.3c-.6-.1-2.1.5-2.4.7zm3 5.5c-.7.9-1.5 1.6-1.7 1.6-.1 0-.2.1-.2.3 0 .1.1.2.3.2.5 0 1.6-1.3 2-1.8.1-.1.1-.3 0-.4-.2 0-.3 0-.4.1zm1.6 1.8s-1.6 1.3-2.8 1.4c-.1 0-.2.1-.2.3 0 .1.1.2.3.2 1.3-.1 3-1.5 3-1.5.1-.1.1-.2 0-.4 0-.1-.2-.1-.3 0zm1.1 1.7c-.1.4-1.6 1.4-2.5 2-.1.1-.2.2-.1.3.1.1.2.2.3.1.4-.3 2.5-1.5 2.7-2.3 0-.1 0-.3-.2-.3l-.2.2zm.4 1.9c-.1.2-1.2.8-2.4 1.1-.1 0-.2.2-.2.3 0 .1.2.2.3.2.6-.2 2.6-.8 2.8-1.5 0-.1 0-.3-.2-.3-.1 0-.3.1-.3.2z"/><path d="M126.1 36.9l1.2-.1-1.3-2.1s2.9-2.3 2.8-6c-.2-7.5-6.6-8.2-6.6-8.2v-.7c2.1-.6 2.4-3.3 2.4-3.3l3.8-1.1-3.9-.7s-1.1-2.9-3.6-2.8c-2.5.1-3.5 2.6-3.5 2.6l-4 .9 3.7 1s-.1 1.9 2.5 3.3c0 .5-.1.8-.1.8s-6.6.8-6.6 8.1c.3 4.9 3 5.7 3 5.7l-1.9 2.3 1.4.1-1.1 2 2.3.2-1.3 5.6 2.2.1.5 8.6s-2.5.6-3.5 1.2c-1 .5-1.5 1.3-1.4 1.8.2.5.8.6 2.5 0s5-2 5-2 1.9 1.1 2.6 1.9c.7.8 3.1.5 3.1.5s.4-.5-.3-1.2-2.6-1.8-2.6-1.8l.7-9 2.1.1-1.2-5.6h2.4l-1.3-2.2zm-8.5-4s-1.6-1.2-1.5-4c.1-1.9 1.6-2.9 1.6-2.9l-.1 6.9zm7.7-3.4c-.1 2.4-1.8 3.4-1.8 3.4l.1-7.1s1.9 1.3 1.7 3.7z" style="fill:#231815"/><path class="st0" d="M120.7 11.7c-2.4.1-3.5 2.1-3.7 2.7-.2.1-3.9.9-3.9.9-.1 0-.2.1-.2.2s.1.2.2.3c0 0 3.2.9 3.5 1 .1.5.4 2 2.5 3.3 0 .2 0 .3-.1.4-1 .2-6.7 1.5-6.7 8.4.2 4 2.1 5.4 2.9 5.8-.3.4-1.6 2.1-1.6 2.1s-.1.1-.1.2v.1c0 .1.1.1.2.2h1c-.3.5-.9 1.6-.9 1.6v.2c0 .1.1.1.2.1 0 0 1.5.1 2 .1-.1.5-1.2 5.3-1.2 5.3v.1c0 .1 0 .1.1.2 0 .1.1.1.2.1 0 0 1.6.1 2 .1 0 .4.5 7.7.5 8.1-.6.2-2.5.7-3.4 1.1-.9.5-1.5 1.2-1.5 1.8v.3c.1.2.2.4.4.5.5.2 1.2.1 2.4-.3 0 0 4.2-1.6 4.9-1.9.4.2 1.8 1.1 2.5 1.7.8.8 3 .6 3.3.6.1 0 .1 0 .2-.1 0 0 .2-.2.2-.5s-.1-.6-.5-1c-.6-.6-2.1-1.5-2.5-1.8 0-.3.7-8.1.7-8.6.4 0 1.8.1 1.8.1.1 0 .2 0 .2-.1 0 0 .1-.1.1-.2v-.1s-1-4.7-1.1-5.3h2.1c.1 0 .2-.1.2-.1v-.2s-.7-1.3-1-1.9h.8c.1 0 .2-.1.2-.1v-.2s-1-1.6-1.2-1.9c.6-.6 2.7-2.7 2.7-5.8V29c-.2-6.8-5.5-8.2-6.6-8.4v-.3c1.8-.7 2.2-2.7 2.3-3.3.3-.1 3.6-1.1 3.6-1.1.1 0 .2-.1.2-.3 0-.1-.1-.2-.2-.2 0 0-3.5-.6-3.8-.7-.3-.8-1.5-3.1-3.9-3zm-4.1 4.8zm.6-1.7c.1 0 .1-.1.2-.2 0 0 1-2.4 3.3-2.5 2.3-.1 3.4 2.6 3.4 2.7 0 .1.1.1.2.2 0 0 1.7.3 2.8.5-1.1.3-2.7.8-2.7.8-.1 0-.2.1-.2.2 0 0-.3 2.5-2.2 3.1-.1 0-.2.1-.2.3v.7c0 .1.1.2.2.2.3 0 6.2.8 6.4 8v.2c0 3.4-2.7 5.5-2.7 5.5-.1.1-.1.1-.1.2v.1s.8 1.2 1.1 1.7h-.8c-.1 0-.2.1-.2.1v.2s.7 1.3 1 1.8h-2c-.1 0-.2 0-.2.1 0 0-.1.1-.1.2v.1s1 4.7 1.1 5.3c-.5 0-1.7-.1-1.7-.1-.1 0-.3.1-.3.2l-.7 9c0 .1 0 .2.1.2 0 0 1.9 1.1 2.6 1.8.3.3.4.5.4.7v.1c-.7.1-2.2.1-2.7-.5-.8-.8-2.6-1.9-2.7-1.9h-.2l-5 2c-1.3.5-1.8.5-2 .3-.1 0-.1-.1-.2-.2v-.1c0-.3.4-.9 1.3-1.3 1-.5 3.4-1.1 3.5-1.2.1 0 .2-.1.2-.3l-.5-8.6c0-.1-.1-.2-.3-.2 0 0-1.4-.1-1.9-.1.1-.5 1.2-5.3 1.2-5.3v-.1c0-.1 0-.1-.1-.2 0-.1-.1-.1-.2-.1 0 0-1.3-.1-1.9-.1.3-.5.9-1.6.9-1.6v-.2c0-.1-.1-.1-.2-.1h-.9c.4-.5 1.5-1.9 1.5-1.9s.1-.1.1-.2v-.1c0-.1-.1-.1-.2-.2-.1 0-2.6-.8-2.8-5.5 0-7 6.1-7.8 6.4-7.9.1 0 .2-.1.2-.2 0 0 .1-.3.1-.9 0-.1-.1-.2-.1-.2-2.3-1.3-2.4-2.9-2.4-3.1 0-.1-.1-.2-.2-.3 0 0-1.7-.5-2.7-.8 1.2.1 3.1-.3 3.1-.3z"/><path class="st0" d="M117.6 25.8c-.1 0-1.6 1.1-1.7 3.1-.1 2.9 1.5 4.1 1.6 4.2.1.1.2.1.3 0 .1 0 .1-.1.1-.2l.1-6.9c0-.1-.1-.2-.1-.2h-.3zm-1.2 3.4v-.3c0-1.2.7-1.9 1.1-2.3 0 .9-.1 4.8-.1 5.7-.5-.5-1-1.5-1-3.1zm7.1-3.6c-.1 0-.1.1-.1.2l-.1 7.1c0 .1.1.2.1.2h.3c.1 0 1.8-1.2 1.9-3.6.2-2.5-1.8-3.8-1.9-3.9h-.2zm.4.8c.5.5 1.2 1.4 1.2 2.8v.2c-.1 1.5-.8 2.4-1.3 2.9 0-.8 0-5 .1-5.9zM13.1 36.1l-9.5-1.7s5.6-3.1 10.3-3.6c2-.2 8.3-1.4 15.1-1.4 7.6.1 15.6 1.4 15.6 1.4S51.5 32 55 34.3c-5.7 1.6-9.6 2-9.6 2s.3-2-.2-2.6c-2.2-2.1-25.9-1.9-30.7-.2-1.5.4-1.4 2.6-1.4 2.6z"/><path d="M15.8 30.1l-2 .3c-4.7.5-10.2 3.5-10.4 3.6l-.9.5 10.9 2V36s0-1.9 1.2-2.3c5.2-1.8 28.5-1.7 30.4.2.3.3.3 1.5.1 2.2l-.1.6.5-.1s4-.4 9.7-2l.8-.2-.7-.5c-3.6-2.3-10.3-3.5-10.5-3.5-.1 0-8.1-1.3-15.7-1.4-5.4 0-10.3.7-13.3 1.1zm-1.8 1l2-.3c2.9-.4 7.8-1.1 13.1-1.1 7.5 0 15.5 1.4 15.6 1.4.1 0 5.9 1.1 9.5 3-4.1 1.1-7.1 1.6-8.2 1.7V35c0-.6-.1-1.3-.5-1.7-2.4-2.3-26-2.1-31.1-.3-1.3.4-1.6 1.9-1.7 2.6-.7-.1-6.4-1.2-8-1.4 1.8-.9 5.8-2.7 9.3-3.1z"/><path d="M71.7 12.7v-.4h-8.5l.1.4s.4 2.2.4 4.8c0 1.3-.1 2.6-.4 3.7-1.1-3.3-1.1-8.5-1.1-8.6v-.4h-9.5l.9.7s.8.6 1 2.1c.1.9.4 11.8.3 22-.1 8.1-.8 16.2-.9 17-.1.8-1.3 1.8-1.8 2.1l-.9.7h10.6l-.1-.4s-.4-2.8-.4-5.9c0-1.1.1-2.3.2-3.3 1.7 6.2 3 9.4 3 9.4l.1.2h6.9v-.4c0-.1-1-14.2-.8-23.4 0-10 .9-20.2.9-20.3z"/><path d="M109.4.9c-.8 0-1.5.7-1.5 1.5s.7 1.5 1.5 1.5 1.5-.7 1.5-1.5c0-.9-.6-1.5-1.5-1.5zm0 2.4c-.5 0-.9-.4-.9-.9s.4-.9.9-.9.9.4.9.9c.1.5-.4.9-.9.9z" style="fill:#132b8c;stroke:#fff;stroke-width:.2922;stroke-linecap:round"/><path d="M83.6 1.5l.1 4.3h1.9V3.5H90s.1 2.6-1.3 4.1C87 9.5 84 8.9 84 8.9v2.2s4.7.5 6.8-2.7c1.9-2.8 1.3-6.9 1.3-6.9h-8.5zm9.1-.1h5.2v2h-5.2zm6.8 1.2h2.1s.7 3.7-2.1 6.7c-1.7 1.9-6.4 1.9-6.4 1.9V9s2.9.2 4.8-1.2c2-1.4 1.6-5.2 1.6-5.2zm11.3 2.6v-2c-.3.5-.8.9-1.4.9-.7 0-1.3-.5-1.5-1.1h-3.3V1.4h-2.2v7.1c0 2.4 2.2 2.6 2.2 2.6h6.1v-2h-5.2c-.6 0-.8-.1-.8-1.8v-2h6.1zm.4-.8h8.8v2.4h-8.8zm9.5-2.4v2h4.6s-.3 1.9-1.5 3.3c-1.5 1.8-3.7 1.7-3.7 1.7v2s3.1.5 5.6-2.5c.8 1.6 3.3 2.7 3.3 2.7V8.9s-1.3-.3-2-2.3c.1-.3.6-2.1.6-2.9V1.8l-6.9.2z" style="fill:#231815;stroke:#fff;stroke-width:8.991905e-02;stroke-linecap:round"/><path d="M109.4.9c-.8 0-1.5.7-1.5 1.5s.7 1.5 1.5 1.5 1.5-.7 1.5-1.5c0-.9-.6-1.5-1.5-1.5zm0 2.4c-.5 0-.9-.4-.9-.9s.4-.9.9-.9.9.4.9.9c.1.5-.4.9-.9.9z" style="fill:#231815;stroke:#231815;stroke-width:8.991905e-02;stroke-linecap:round"/></svg>